
<!-- Generator: visioncortex VTracer 0.6.4 -->
<svg version="1.1" xmlns="http://www.w3.org/2000/svg" viewBox="0 0 400 400" preserveAspectRatio="xMidYMid meet">
<path d="M0 0 C8.866 2.999 17.964 9.924 24 17 C24 17.66 24 18.32 24 19 C25.485 19.495 25.485 19.495 27 20 C27 20.66 27 21.32 27 22 C27.66 22 28.32 22 29 22 C29 22.66 29 23.32 29 24 C29.83 24.311 29.83 24.311 30.676 24.629 C33.848 26.5 35.894 29.118 38.188 31.938 C38.665 32.514 39.143 33.09 39.635 33.683 C41.097 35.45 42.549 37.225 44 39 C44.871 40.055 45.742 41.11 46.613 42.164 C48.756 44.766 50.892 47.37 53 50 C53.577 50.721 54.155 51.441 54.75 52.184 C56 54 56 54 56 56 C56.66 56 57.32 56 58 56 C59.317 57.614 60.554 59.294 61.75 61 C64.14 64.376 66.533 67.728 69.062 71 C71.383 74.06 73.419 77.234 75.438 80.5 C78.544 85.458 82.046 89.708 86 94 C91 99.655 91 99.655 91 102 C91.66 102 92.32 102 93 102 C94.863 104.146 96.567 106.28 98.25 108.562 C98.744 109.231 99.237 109.9 99.746 110.589 C104.943 117.907 108.056 125.744 110.715 134.301 C112.786 137.039 115.761 137.419 119 138 C122.711 138.238 126.404 138.186 130.121 138.125 C131.18 138.117 132.239 138.11 133.329 138.102 C137.835 138.07 142.34 138.013 146.846 137.959 C150.146 137.923 153.446 137.899 156.746 137.875 C157.755 137.858 158.763 137.842 159.802 137.825 C165.574 137.785 170.467 138.335 176 140 C176.394 147.683 175.547 153.777 173 161 C172.56 162.319 172.123 163.64 171.688 164.961 C170.473 168.646 169.24 172.324 168 176 C167.34 176 166.68 176 166 176 C165.773 177.217 165.546 178.434 165.312 179.688 C163.081 189.512 159.979 199.348 152 206 C151.34 206 150.68 206 150 206 C149.744 206.595 149.488 207.189 149.225 207.802 C147.875 210.224 146.56 211.449 144.402 213.172 C143.687 213.75 142.971 214.329 142.234 214.925 C141.476 215.527 140.718 216.129 139.938 216.75 C138.394 217.999 136.851 219.249 135.309 220.5 C134.566 221.101 133.823 221.701 133.058 222.32 C126.164 227.439 126.164 227.439 121 234 C120.34 234 119.68 234 119 234 C118.745 234.668 118.49 235.335 118.227 236.023 C113.34 247.882 107.22 258.307 99.152 268.285 C94.662 273.881 91.326 279.655 88 286 C86.33 289.135 84.638 292.257 82.938 295.375 C82.526 296.148 82.114 296.922 81.69 297.719 C79.261 302.164 76.815 305.58 73 309 C71.927 310 71.927 310 70.832 311.02 C70.166 311.611 69.499 312.203 68.812 312.812 C68.138 313.417 67.464 314.022 66.77 314.645 C65 316 65 316 63 316 C62.67 316.99 62.34 317.98 62 319 C60.172 320.691 60.172 320.691 57.75 322.562 C56.858 323.255 55.966 323.947 55.047 324.66 C54.041 325.432 53.036 326.204 52 327 C50.838 327.914 49.676 328.83 48.516 329.746 C47.344 330.665 46.172 331.582 45 332.5 C44.436 332.945 43.873 333.391 43.292 333.85 C39.229 337 39.229 337 37 337 C37 337.66 37 338.32 37 339 C35.342 340.475 33.622 341.881 31.875 343.25 C28.567 345.875 25.462 348.434 22.625 351.562 C20 354 20 354 17.25 354.5 C15 354 15 354 13 352 C11.391 341.062 10.599 328.888 16 319 C15.024 319.505 14.048 320.011 13.043 320.531 C11.758 321.188 10.473 321.844 9.188 322.5 C8.224 323.001 8.224 323.001 7.24 323.512 C4.305 325.002 2.339 326 -1 326 C-1 326.66 -1 327.32 -1 328 C-1.907 328.598 -2.815 329.196 -3.75 329.812 C-7.008 331.767 -7.008 331.767 -8.859 334.344 C-11.174 337.216 -13.635 339.369 -16.5 341.688 C-17.438 342.454 -18.377 343.221 -19.344 344.012 C-23.892 347.416 -27.3 348.806 -33 348 C-41.412 345.944 -49.236 342.797 -57 339 C-57 338.34 -57 337.68 -57 337 C-57.897 336.691 -57.897 336.691 -58.812 336.375 C-62.045 334.343 -62.733 332.612 -64 329 C-64.999 319.669 -64.999 319.669 -62.602 315.664 C-62.073 315.115 -61.545 314.566 -61 314 C-60.34 314 -59.68 314 -59 314 C-59 313.34 -59 312.68 -59 312 C-58.34 312 -57.68 312 -57 312 C-56.691 311.381 -56.381 310.762 -56.062 310.125 C-55.375 308.75 -54.688 307.375 -54 306 C-53.34 306 -52.68 306 -52 306 C-51.892 305.285 -51.783 304.569 -51.672 303.832 C-50.939 300.744 -49.775 298.467 -48.25 295.688 C-42.548 284.626 -38.822 272.511 -38.812 260.062 C-38.794 258.865 -38.794 258.865 -38.775 257.643 C-38.744 252.946 -38.744 252.946 -40.074 248.496 C-41.524 244.588 -40.633 241.05 -40 237 C-39.76 235.305 -39.521 233.609 -39.281 231.914 C-38.893 229.273 -38.501 226.632 -38.105 223.992 C-36.622 213.861 -35.844 203.861 -35.832 193.621 C-35.829 192.57 -35.825 191.518 -35.822 190.435 C-35.817 188.222 -35.815 186.009 -35.815 183.797 C-35.813 180.47 -35.794 177.145 -35.775 173.818 C-35.73 157.485 -37.088 141.952 -39.887 125.885 C-41.41 116.95 -42.241 107.959 -43.062 98.938 C-43.146 98.037 -43.23 97.136 -43.317 96.207 C-44.478 83.733 -45.485 71.255 -46.25 58.75 C-46.33 57.457 -46.41 56.164 -46.492 54.832 C-47.768 32.303 -47.768 32.303 -46 27 C-43.586 25.143 -41.795 24.98 -38.75 24.688 C-32.669 26.816 -30.398 31.737 -27 37 C-26.222 38.147 -25.441 39.291 -24.656 40.434 C-19.617 47.812 -14.888 55.362 -10.26 63.004 C-5.402 71.021 -0.382 78.933 4.64 86.849 C6.774 90.224 8.888 93.611 11 97 C11.66 96.67 12.32 96.34 13 96 C12.807 84.901 10.44 75.458 7 65 C6.566 63.646 6.132 62.292 5.699 60.938 C3.991 55.657 2.226 50.426 0.062 45.312 C-3.022 37.86 -5.096 30.011 -7.338 22.273 C-7.931 20.238 -8.544 18.208 -9.16 16.18 C-10.491 11.141 -10.963 6.323 -8.938 1.438 C-5.85 -0.853 -3.76 -0.493 0 0 Z " fill="#F5F5F5" transform="translate(171,20)"/>
<path d="M0 0 C8.866 2.999 17.964 9.924 24 17 C24 17.66 24 18.32 24 19 C25.485 19.495 25.485 19.495 27 20 C27 20.66 27 21.32 27 22 C27.66 22 28.32 22 29 22 C29 22.66 29 23.32 29 24 C29.83 24.311 29.83 24.311 30.676 24.629 C33.848 26.5 35.894 29.118 38.188 31.938 C38.665 32.514 39.143 33.09 39.635 33.683 C41.097 35.45 42.549 37.225 44 39 C44.871 40.055 45.742 41.11 46.613 42.164 C48.756 44.766 50.892 47.37 53 50 C53.577 50.721 54.155 51.441 54.75 52.184 C56 54 56 54 56 56 C56.66 56 57.32 56 58 56 C59.317 57.614 60.554 59.294 61.75 61 C64.14 64.376 66.533 67.728 69.062 71 C71.383 74.06 73.419 77.234 75.438 80.5 C78.544 85.458 82.046 89.708 86 94 C91 99.655 91 99.655 91 102 C91.66 102 92.32 102 93 102 C94.863 104.146 96.567 106.28 98.25 108.562 C98.744 109.231 99.237 109.9 99.746 110.589 C104.943 117.907 108.056 125.744 110.715 134.301 C112.786 137.039 115.761 137.419 119 138 C122.711 138.238 126.404 138.186 130.121 138.125 C131.18 138.117 132.239 138.11 133.329 138.102 C137.835 138.07 142.34 138.013 146.846 137.959 C150.146 137.923 153.446 137.899 156.746 137.875 C157.755 137.858 158.763 137.842 159.802 137.825 C165.574 137.785 170.467 138.335 176 140 C176.394 147.683 175.547 153.777 173 161 C172.56 162.319 172.123 163.64 171.688 164.961 C170.473 168.646 169.24 172.324 168 176 C167.34 176 166.68 176 166 176 C165.773 177.217 165.546 178.434 165.312 179.688 C163.081 189.512 159.979 199.348 152 206 C151.34 206 150.68 206 150 206 C149.744 206.595 149.488 207.189 149.225 207.802 C147.875 210.224 146.56 211.449 144.402 213.172 C143.687 213.75 142.971 214.329 142.234 214.925 C141.476 215.527 140.718 216.129 139.938 216.75 C138.394 217.999 136.851 219.249 135.309 220.5 C134.566 221.101 133.823 221.701 133.058 222.32 C126.164 227.439 126.164 227.439 121 234 C120.34 234 119.68 234 119 234 C118.745 234.668 118.49 235.335 118.227 236.023 C113.34 247.882 107.22 258.307 99.152 268.285 C94.662 273.881 91.326 279.655 88 286 C86.33 289.135 84.638 292.257 82.938 295.375 C82.526 296.148 82.114 296.922 81.69 297.719 C79.261 302.164 76.815 305.58 73 309 C71.927 310 71.927 310 70.832 311.02 C70.166 311.611 69.499 312.203 68.812 312.812 C68.138 313.417 67.464 314.022 66.77 314.645 C65 316 65 316 63 316 C62.67 316.99 62.34 317.98 62 319 C60.172 320.691 60.172 320.691 57.75 322.562 C56.858 323.255 55.966 323.947 55.047 324.66 C54.041 325.432 53.036 326.204 52 327 C50.838 327.914 49.676 328.83 48.516 329.746 C47.344 330.665 46.172 331.582 45 332.5 C44.436 332.945 43.873 333.391 43.292 333.85 C39.229 337 39.229 337 37 337 C37 337.66 37 338.32 37 339 C35.342 340.475 33.622 341.881 31.875 343.25 C28.567 345.875 25.462 348.434 22.625 351.562 C20 354 20 354 17.25 354.5 C15 354 15 354 13 352 C11.391 341.062 10.599 328.888 16 319 C15.024 319.505 14.048 320.011 13.043 320.531 C11.758 321.188 10.473 321.844 9.188 322.5 C8.224 323.001 8.224 323.001 7.24 323.512 C4.305 325.002 2.339 326 -1 326 C-1 326.66 -1 327.32 -1 328 C-1.907 328.598 -2.815 329.196 -3.75 329.812 C-7.008 331.767 -7.008 331.767 -8.859 334.344 C-11.174 337.216 -13.635 339.369 -16.5 341.688 C-17.438 342.454 -18.377 343.221 -19.344 344.012 C-23.892 347.416 -27.3 348.806 -33 348 C-41.412 345.944 -49.236 342.797 -57 339 C-57 338.34 -57 337.68 -57 337 C-57.897 336.691 -57.897 336.691 -58.812 336.375 C-62.045 334.343 -62.733 332.612 -64 329 C-64.999 319.669 -64.999 319.669 -62.602 315.664 C-62.073 315.115 -61.545 314.566 -61 314 C-60.34 314 -59.68 314 -59 314 C-59 313.34 -59 312.68 -59 312 C-58.34 312 -57.68 312 -57 312 C-56.691 311.381 -56.381 310.762 -56.062 310.125 C-55.375 308.75 -54.688 307.375 -54 306 C-53.34 306 -52.68 306 -52 306 C-51.892 305.285 -51.783 304.569 -51.672 303.832 C-50.939 300.744 -49.775 298.467 -48.25 295.688 C-42.548 284.626 -38.822 272.511 -38.812 260.062 C-38.794 258.865 -38.794 258.865 -38.775 257.643 C-38.744 252.946 -38.744 252.946 -40.074 248.496 C-41.524 244.588 -40.633 241.05 -40 237 C-39.76 235.305 -39.521 233.609 -39.281 231.914 C-38.893 229.273 -38.501 226.632 -38.105 223.992 C-36.622 213.861 -35.844 203.861 -35.832 193.621 C-35.829 192.57 -35.825 191.518 -35.822 190.435 C-35.817 188.222 -35.815 186.009 -35.815 183.797 C-35.813 180.47 -35.794 177.145 -35.775 173.818 C-35.73 157.485 -37.088 141.952 -39.887 125.885 C-41.41 116.95 -42.241 107.959 -43.062 98.938 C-43.146 98.037 -43.23 97.136 -43.317 96.207 C-44.478 83.733 -45.485 71.255 -46.25 58.75 C-46.33 57.457 -46.41 56.164 -46.492 54.832 C-47.768 32.303 -47.768 32.303 -46 27 C-43.586 25.143 -41.795 24.98 -38.75 24.688 C-32.669 26.816 -30.398 31.737 -27 37 C-26.222 38.147 -25.441 39.291 -24.656 40.434 C-19.617 47.812 -14.888 55.362 -10.26 63.004 C-5.402 71.021 -0.382 78.933 4.64 86.849 C6.774 90.224 8.888 93.611 11 97 C11.66 96.67 12.32 96.34 13 96 C12.807 84.901 10.44 75.458 7 65 C6.566 63.646 6.132 62.292 5.699 60.938 C3.991 55.657 2.226 50.426 0.062 45.312 C-3.022 37.86 -5.096 30.011 -7.338 22.273 C-7.931 20.238 -8.544 18.208 -9.16 16.18 C-10.491 11.141 -10.963 6.323 -8.938 1.438 C-5.85 -0.853 -3.76 -0.493 0 0 Z M-7 4 C-8.195 15.156 -3.722 26.786 1.043 36.734 C2.725 40.717 3.729 44.903 4.867 49.066 C5.861 52.618 7.02 56.1 8.217 59.588 C9.268 62.658 10.285 65.739 11.291 68.824 C11.932 70.792 12.585 72.755 13.238 74.719 C16.227 84.891 16.52 94.768 16.585 105.33 C16.661 111.477 16.896 115.573 20 121 C20.422 125.338 20.243 129.626 20.074 133.979 C20.001 135.968 19.971 137.959 19.941 139.949 C19.878 141.8 19.878 141.8 19.812 143.688 C19.778 144.805 19.743 145.923 19.707 147.074 C18.796 150.846 17.18 151.916 14 154 C14.825 153.299 15.65 152.597 16.5 151.875 C19.189 149.262 19.189 149.262 19.562 146.188 C17.706 135.667 9.595 127.855 1.251 121.712 C-6.418 116.523 -14.752 112.506 -23.19 108.737 C-34.077 103.847 -34.077 103.847 -36 100 C-24.51 102.272 -13.209 105.171 -2.013 108.61 C1.75 109.752 4.186 110.156 8 109 C9.668 101.216 7.893 97.472 3.676 90.953 C2.698 89.485 1.71 88.023 0.715 86.566 C-3.171 80.751 -6.795 74.739 -10.348 68.715 C-18.693 55.004 -27.301 41.004 -38 29 C-41.291 29.379 -41.291 29.379 -44 31 C-44.602 41.954 -43.659 52.962 -42.828 63.88 C-42.625 66.562 -42.433 69.245 -42.242 71.928 C-41.602 80.688 -40.807 89.349 -39.429 98.027 C-38.976 101.163 -38.714 104.277 -38.5 107.438 C-38.099 113.235 -37.4 118.956 -36.598 124.711 C-36.509 125.359 -36.421 126.007 -36.33 126.675 C-36.086 128.397 -35.821 130.117 -35.545 131.835 C-33.549 145.127 -33.066 158.528 -32.375 171.938 C-32.24 174.471 -32.105 177.004 -31.969 179.537 C-31.64 185.691 -31.317 191.845 -31 198 C-30.381 197.381 -29.762 196.762 -29.125 196.125 C-27.75 194.75 -26.375 193.375 -25 192 C-25.706 192.895 -25.706 192.895 -26.426 193.809 C-32.412 202.15 -33.848 210.052 -35 220 C-35.146 221.048 -35.146 221.048 -35.294 222.116 C-35.977 227.595 -36.049 232.997 -35.992 238.508 C-35.984 239.283 -35.977 240.057 -35.969 240.856 C-35.932 244.082 -35.891 247.308 -35.829 250.534 C-35.569 264.841 -36.097 279.103 -43 292 C-43.556 293.128 -44.111 294.256 -44.684 295.418 C-48.695 303.412 -53.2 310.165 -59.094 316.902 C-61.646 321.05 -61.477 323.192 -61 328 C-57.219 335.713 -50.915 338.827 -43.25 341.812 C-34.225 344.959 -34.225 344.959 -25 344 C-20.424 341.07 -16.524 337.258 -12.604 333.521 C-2.732 324.16 8.713 317.845 21.391 313.059 C24.772 311.687 28.043 310.115 31.312 308.5 C33.039 307.649 33.039 307.649 34.801 306.781 C43.753 301.797 46.137 296.134 48.938 286.625 C52.391 275.019 58.197 264.437 67 256 C66.221 257.541 66.221 257.541 65.426 259.113 C60.128 269.623 55.042 280.06 51 291.125 C45.216 306.846 45.216 306.846 38 312 C38 312.66 38 313.32 38 314 C37.165 314.34 37.165 314.34 36.312 314.688 C33.305 316.395 31.367 318.468 29 321 C28.451 321.509 27.902 322.018 27.336 322.543 C22.987 326.882 20.675 331.466 18.5 337.125 C18.233 337.806 17.965 338.487 17.69 339.189 C16.137 343.511 15.837 346.556 17 351 C20.194 349.603 22.189 347.975 24.562 345.438 C30.384 339.476 36.897 334.409 43.465 329.301 C44.664 328.367 45.863 327.434 47.062 326.5 C47.955 325.805 47.955 325.805 48.866 325.095 C53.326 321.595 57.546 317.892 61.699 314.031 C63.914 312.076 66.201 310.435 68.625 308.75 C74.421 304.359 77.526 298.249 81 292 C84.113 286.457 87.414 281.06 90.812 275.688 C91.609 274.425 91.609 274.425 92.422 273.137 C95.669 268.02 99.04 263.027 102.566 258.098 C103.965 256.052 105.186 253.986 106.375 251.812 C106.778 251.079 107.182 250.346 107.598 249.59 C108.668 247.614 109.713 245.624 110.746 243.629 C118.233 229.768 129.702 220.114 142.031 210.559 C144.564 208.554 146.778 206.342 149 204 C149.576 203.468 150.152 202.935 150.746 202.387 C155.814 197.635 158.4 193.824 159.5 186.812 C159.22 183.843 159.22 183.843 156.938 181.625 C150.916 178.294 144.485 180.131 138.125 181.84 C127.205 185.894 119.856 194.691 113.938 204.375 C112.89 207.308 112.775 208.188 114 211 C116.269 212.502 116.269 212.502 119 213.625 C123.907 215.814 123.907 215.814 125 218 C124.372 217.948 123.745 217.895 123.098 217.841 C106.638 216.657 95.698 218.785 82 228 C81.414 228.383 80.828 228.766 80.224 229.161 C77.405 231.01 74.664 232.932 72 235 C71.67 234.67 71.34 234.34 71 234 C72.558 232.557 74.121 231.121 75.688 229.688 C76.558 228.887 77.428 228.086 78.324 227.262 C81 225 81 225 83.832 223.332 C84.905 222.673 84.905 222.673 86 222 C86 221.34 86 220.68 86 220 C86.719 219.75 87.439 219.5 88.18 219.242 C91.263 217.884 93.511 216.244 96.125 214.125 C96.973 213.447 97.821 212.769 98.695 212.07 C102.826 208.36 104.414 205.135 106.125 199.875 C108.368 193.807 111.296 189.794 115.816 185.219 C118.053 183.048 118.053 183.048 119.848 180.512 C122.516 177.398 125.418 175.467 128.875 173.312 C129.474 172.923 130.074 172.533 130.691 172.131 C138.301 167.302 145.447 166.511 154.275 165.965 C159.114 165.692 159.114 165.692 162.984 163.086 C163.32 162.398 163.655 161.709 164 161 C164.516 160.175 165.031 159.35 165.562 158.5 C166.037 157.675 166.511 156.85 167 156 C167.366 155.395 167.732 154.791 168.109 154.168 C169.219 151.467 169.041 149.695 168.688 146.812 C168.588 145.932 168.489 145.052 168.387 144.145 C168.215 142.025 168.215 142.025 167 141 C165.221 140.877 163.437 140.822 161.654 140.795 C160.513 140.775 159.372 140.755 158.196 140.734 C156.955 140.718 155.713 140.701 154.434 140.684 C152.538 140.652 152.538 140.652 150.604 140.621 C147.239 140.566 143.874 140.516 140.508 140.468 C137.076 140.418 133.645 140.362 130.213 140.307 C123.475 140.199 116.738 140.098 110 140 C109.707 139.099 109.415 138.198 109.113 137.27 C104.647 124.153 98.361 113.184 89 103 C83.855 96.841 79.07 90.434 74.348 83.95 C70.451 78.6 66.491 73.3 62.503 68.017 C59.921 64.589 57.371 61.142 54.867 57.656 C54.113 56.61 54.113 56.61 53.344 55.543 C52.382 54.206 51.426 52.865 50.477 51.52 C49.366 49.977 48.189 48.483 47 47 C46.34 47 45.68 47 45 47 C44.78 46.473 44.559 45.946 44.332 45.402 C42.511 42.119 40.134 39.388 37.688 36.562 C36.894 35.644 36.894 35.644 36.084 34.706 C18.98 13.968 18.98 13.968 -3.938 2.688 C-5.987 2.789 -5.987 2.789 -7 4 Z " fill="#0A0A0A" transform="translate(171,20)"/>
<path d="M0 0 C2.97 0.188 4.563 0.628 6.844 2.566 C7.39 3.225 7.937 3.884 8.5 4.562 C9.047 5.203 9.593 5.844 10.156 6.504 C12.147 9.199 13.906 11.978 15.662 14.83 C17.913 18.481 20.24 22.082 22.562 25.688 C23.031 26.42 23.5 27.153 23.982 27.908 C26.481 31.784 29.107 35.404 32 39 C32.925 40.85 33.847 42.702 34.742 44.566 C38.398 51.639 42.799 58.351 47.438 64.812 C50.237 68.962 51 71.989 51 77 C50.062 79.5 50.062 79.5 49 81 C44.185 80.391 39.618 79.466 34.938 78.188 C34.296 78.014 33.654 77.84 32.992 77.661 C27.378 76.132 21.794 74.498 16.219 72.832 C12.824 71.955 9.477 71.435 6 71 C9.168 74.554 12.687 76.67 16.875 78.812 C17.86 79.33 17.86 79.33 18.866 79.857 C22.146 81.569 25.446 83.227 28.781 84.828 C40.913 90.683 54.898 99.158 60.398 112.164 C61.385 115.174 61.733 116.87 61 120 C57.035 125.64 50.687 129.632 45.277 133.798 C40.1 137.822 35.513 142.245 31 147 C30.198 147.798 29.396 148.596 28.57 149.418 C25.962 152.038 23.437 154.714 20.938 157.438 C20.101 158.344 19.264 159.25 18.402 160.184 C16.659 162.227 15.204 164.118 13.754 166.348 C12.886 167.661 12.886 167.661 12 169 C11.67 169 11.34 169 11 169 C10.954 168.072 10.954 168.072 10.906 167.125 C10.575 160.535 10.232 153.946 9.883 147.357 C9.755 144.916 9.63 142.474 9.508 140.033 C8.55 112.286 8.55 112.286 4 85 C3.676 82.416 3.386 79.84 3.125 77.25 C3.043 76.446 2.96 75.642 2.875 74.813 C2.578 71.876 2.288 68.938 2 66 C1.878 64.763 1.757 63.526 1.631 62.251 C-3.02 14.739 -3.02 14.739 -2 2 C-1.34 1.34 -0.68 0.68 0 0 Z " fill="#F6F6F6" transform="translate(129,49)"/>
<path d="M0 0 C3.145 3.341 5.517 7.154 8 11 C8.778 12.147 9.559 13.291 10.344 14.434 C15.383 21.812 20.112 29.362 24.74 37.004 C29.598 45.021 34.618 52.933 39.64 60.849 C41.774 64.224 43.888 67.611 46 71 C46.66 70.67 47.32 70.34 48 70 C47.505 61.09 47.505 61.09 47 52 C47.66 52 48.32 52 49 52 C52.635 60.944 52.458 69.411 52.527 78.959 C52.549 80.162 52.571 81.366 52.594 82.605 C52.601 83.69 52.608 84.774 52.615 85.891 C53.056 89.456 54.324 91.849 56 95 C56.422 99.341 56.24 103.632 56.069 107.988 C56.002 109.951 55.988 111.915 55.977 113.879 C55.695 124.1 55.695 124.1 51.938 127.875 C50.968 128.576 49.999 129.278 49 130 C48.34 129.67 47.68 129.34 47 129 C47.99 128.134 48.98 127.268 50 126.375 C52.214 124.129 52.938 123.284 53.625 120.125 C51.474 109.371 43.386 101.531 34.543 95.578 C27.329 91.007 19.709 87.261 11.898 83.825 C7.138 81.699 3.088 79.257 -1 76 C-1 75.34 -1 74.68 -1 74 C5.902 73.464 11.922 75.436 18.5 77.375 C20.153 77.851 20.153 77.851 21.84 78.336 C29.605 80.573 29.605 80.573 33.199 81.673 C36.356 82.627 38.637 83 42 83 C43.668 75.216 41.893 71.472 37.676 64.953 C36.698 63.485 35.71 62.023 34.715 60.566 C30.829 54.751 27.205 48.739 23.652 42.715 C15.569 29.434 7.215 15.763 -3 4 C-4.65 4.33 -6.3 4.66 -8 5 C-8.208 16.018 -7.664 26.895 -6.828 37.88 C-6.625 40.562 -6.433 43.245 -6.242 45.928 C-5.602 54.688 -4.807 63.349 -3.429 72.027 C-2.976 75.163 -2.714 78.277 -2.5 81.438 C-2.099 87.235 -1.4 92.956 -0.598 98.711 C-0.509 99.358 -0.421 100.006 -0.33 100.673 C-0.085 102.402 0.18 104.128 0.455 105.853 C2.418 118.977 2.929 132.198 3.625 145.438 C3.76 147.923 3.895 150.408 4.031 152.893 C4.36 158.928 4.683 164.964 5 171 C5.41 170.434 5.82 169.868 6.242 169.285 C6.781 168.552 7.32 167.818 7.875 167.062 C8.409 166.332 8.942 165.601 9.492 164.848 C11 163 11 163 13 162 C11.961 164.259 10.859 166.192 9.379 168.199 C3.444 176.329 2.129 184.253 1 194 C0.854 195.048 0.854 195.048 0.706 196.116 C0.023 201.595 -0.049 206.997 0.008 212.508 C0.016 213.283 0.023 214.057 0.031 214.856 C0.068 218.082 0.109 221.308 0.171 224.534 C0.431 238.841 -0.097 253.103 -7 266 C-7.556 267.128 -8.111 268.256 -8.684 269.418 C-12.695 277.412 -17.2 284.165 -23.094 290.902 C-25.647 295.052 -25.482 297.189 -25 302 C-21.457 309.086 -15.526 312.085 -8.312 314.75 C0.736 317.954 0.736 317.954 10 317 C14.576 314.07 18.476 310.258 22.396 306.521 C32.274 297.154 43.714 290.862 56.391 286.055 C59.764 284.691 63.042 283.154 66.312 281.562 C67.464 281.007 68.615 280.451 69.801 279.879 C77.613 275.291 80.517 269.221 82.875 260.75 C85.926 250.607 90.722 242.48 97 234 C97.523 233.245 98.047 232.489 98.586 231.711 C99.053 231.146 99.519 230.582 100 230 C100.66 230 101.32 230 102 230 C100.195 234.653 98.16 239.195 96.125 243.75 C95.786 244.511 95.447 245.271 95.098 246.055 C94.759 246.815 94.42 247.576 94.07 248.359 C93.73 249.124 93.389 249.888 93.038 250.676 C92.341 252.237 91.64 253.796 90.936 255.353 C88.977 259.708 87.188 264.069 85.562 268.562 C82.302 277.051 78.883 282.612 71.852 288.406 C69.57 290.37 67.853 292.636 66 295 C65.175 295.639 64.35 296.279 63.5 296.938 C58.472 301.085 56.308 306.314 54.25 312.375 C53.822 313.62 53.394 314.865 52.953 316.148 C52.639 317.089 52.324 318.03 52 319 C51.505 317.515 51.505 317.515 51 316 C50.34 316 49.68 316 49 316 C48.797 309.346 48.858 303.204 50.562 296.742 C51.081 294.976 51.081 294.976 51 293 C50.024 293.505 49.048 294.011 48.043 294.531 C46.758 295.188 45.473 295.844 44.188 296.5 C43.224 297.001 43.224 297.001 42.24 297.512 C39.305 299.002 37.339 300 34 300 C34 300.66 34 301.32 34 302 C33.093 302.598 32.185 303.196 31.25 303.812 C27.992 305.767 27.992 305.767 26.141 308.344 C23.826 311.216 21.365 313.369 18.5 315.688 C17.562 316.454 16.623 317.221 15.656 318.012 C11.108 321.416 7.7 322.806 2 322 C-6.412 319.944 -14.236 316.797 -22 313 C-22 312.34 -22 311.68 -22 311 C-22.897 310.691 -22.897 310.691 -23.812 310.375 C-27.045 308.343 -27.733 306.612 -29 303 C-29.999 293.669 -29.999 293.669 -27.602 289.664 C-27.073 289.115 -26.545 288.566 -26 288 C-25.34 288 -24.68 288 -24 288 C-24 287.34 -24 286.68 -24 286 C-23.34 286 -22.68 286 -22 286 C-21.691 285.381 -21.381 284.762 -21.062 284.125 C-20.375 282.75 -19.688 281.375 -19 280 C-18.34 280 -17.68 280 -17 280 C-16.892 279.285 -16.783 278.569 -16.672 277.832 C-15.939 274.744 -14.775 272.467 -13.25 269.688 C-7.548 258.626 -3.822 246.511 -3.812 234.062 C-3.794 232.865 -3.794 232.865 -3.775 231.643 C-3.744 226.946 -3.744 226.946 -5.074 222.496 C-6.524 218.588 -5.633 215.05 -5 211 C-4.76 209.305 -4.521 207.609 -4.281 205.914 C-3.893 203.273 -3.501 200.632 -3.105 197.992 C-1.622 187.861 -0.844 177.861 -0.832 167.621 C-0.829 166.57 -0.825 165.518 -0.822 164.435 C-0.817 162.222 -0.815 160.009 -0.815 157.797 C-0.813 154.47 -0.794 151.145 -0.775 147.818 C-0.73 131.485 -2.088 115.952 -4.887 99.885 C-6.41 90.95 -7.241 81.959 -8.062 72.938 C-8.146 72.037 -8.23 71.136 -8.317 70.207 C-9.478 57.733 -10.485 45.255 -11.25 32.75 C-11.33 31.457 -11.41 30.164 -11.492 28.832 C-12.768 6.303 -12.768 6.303 -11 1 C-7.345 -1.811 -4.213 -1.474 0 0 Z " fill="#100E0E" transform="translate(136,46)"/>
<path d="M0 0 C2.97 0.188 4.563 0.628 6.844 2.566 C7.39 3.225 7.937 3.884 8.5 4.562 C9.047 5.203 9.593 5.844 10.156 6.504 C12.147 9.199 13.906 11.978 15.662 14.83 C17.913 18.481 20.24 22.082 22.562 25.688 C23.031 26.42 23.5 27.153 23.982 27.908 C26.481 31.784 29.107 35.404 32 39 C32.925 40.85 33.847 42.702 34.742 44.566 C38.398 51.639 42.799 58.351 47.438 64.812 C50.237 68.962 51 71.989 51 77 C50.062 79.5 50.062 79.5 49 81 C44.185 80.391 39.618 79.466 34.938 78.188 C34.296 78.014 33.654 77.84 32.992 77.661 C27.378 76.132 21.794 74.498 16.219 72.832 C12.824 71.955 9.477 71.435 6 71 C6 71.66 6 72.32 6 73 C5.01 72.67 4.02 72.34 3 72 C1.287 61.444 0.326 50.91 -0.433 40.251 C-0.624 37.57 -0.827 34.889 -1.031 32.209 C-2.69 9.802 -2.69 9.802 -2 2 C-1.34 1.34 -0.68 0.68 0 0 Z " fill="#F3F3F3" transform="translate(129,49)"/>
<path d="M0 0 C0.66 0 1.32 0 2 0 C3.087 1.752 4.093 3.555 5.062 5.375 C8.679 11.734 12.839 16.839 18 22 C18.795 22.795 19.591 23.591 20.41 24.41 C25.874 29.597 31.813 34.461 39 37 C41.695 36.947 41.695 36.947 44 36 C45.792 33.251 45.792 33.251 47 30 C47.392 29.051 47.784 28.102 48.188 27.125 C48.456 26.424 48.724 25.722 49 25 C52.762 26.51 54.626 28.664 57.125 31.812 C57.907 32.796 58.69 33.78 59.496 34.793 C60.331 35.861 61.166 36.931 62 38 C62.427 38.542 62.854 39.084 63.293 39.643 C80.174 61.099 80.174 61.099 79.852 68.328 C78.877 72.529 77.363 75.949 75.375 79.75 C75.017 80.447 74.66 81.145 74.292 81.863 C71.2 87.803 67.796 93.481 64 99 C63.509 99.727 63.018 100.454 62.512 101.203 C58.94 106.248 54.762 110.091 50 114 C49.415 114.51 48.83 115.021 48.227 115.547 C44.25 119 44.25 119 42 119 C43.559 114.779 45.598 110.904 47.812 107 C48.143 106.397 48.474 105.793 48.814 105.172 C51.078 101.174 53.599 98.148 57 95 C59.182 92.818 59.995 90.758 61.133 87.93 C62.018 85.961 63.082 84.25 64.25 82.438 C66.19 79.215 66.19 79.215 66.125 76.125 C63.621 69.168 59.167 63.908 53.809 58.941 C51.691 56.668 50.298 54.217 48.688 51.562 C43.568 44.25 36.09 42.035 28.089 38.866 C20.907 35.89 15.595 32.217 11 26 C10.237 25.319 9.474 24.639 8.688 23.938 C7 22 7 22 6.75 19.25 C6.833 18.507 6.915 17.765 7 17 C6.34 17 5.68 17 5 17 C4.163 14.543 3.33 12.084 2.5 9.625 C2.262 8.926 2.023 8.228 1.777 7.508 C0 2.227 0 2.227 0 0 Z " fill="#E00707" transform="translate(199,97)"/>
<path d="M0 0 C2.691 1.096 4.198 2.203 6.25 4.312 C12.799 10.713 21.547 14.738 30.129 17.746 C36.486 20.225 39.742 25.487 43.609 30.816 C45.561 33.416 47.439 35.557 49.812 37.75 C54.182 41.933 57.872 46.873 58.125 53.062 C56.85 56.393 55.174 59.147 53.199 62.105 C51.861 64.087 51.861 64.087 50.875 66.875 C50 69 50 69 47 71 C46.919 70.447 46.838 69.894 46.754 69.324 C45.745 66.213 44.04 64.312 41.938 61.812 C40.712 60.345 40.712 60.345 39.461 58.848 C37.373 56.432 35.236 54.088 33.062 51.75 C28.08 46.222 24.197 39.975 20.153 33.752 C18.592 31.38 16.958 29.064 15.312 26.75 C0 5.024 0 5.024 0 0 Z " fill="#AEABAC" transform="translate(208,122)"/>
<path d="M0 0 C-0.696 10.087 -0.696 10.087 -5 14 C-8.241 14.343 -11.335 14.241 -14.59 14.094 C-19.113 13.969 -23.799 14.193 -28 16 C-28.695 17.319 -29.359 18.654 -30 20 C-32.137 21.789 -32.137 21.789 -34.688 23.625 C-41.963 29.276 -46.472 34.834 -48 44 C-44.37 45.98 -40.74 47.96 -37 50 C-37 50.66 -37 51.32 -37 52 C-37.628 51.978 -38.255 51.956 -38.902 51.933 C-58.972 51.44 -72.489 56.5 -88.188 68.918 C-88.786 69.275 -89.384 69.632 -90 70 C-90.99 69.67 -91.98 69.34 -93 69 C-88.314 64.095 -83.728 59.666 -78 56 C-77.34 56 -76.68 56 -76 56 C-76 55.34 -76 54.68 -76 54 C-73.759 52.301 -71.515 50.698 -69.188 49.125 C-62.622 44.687 -59.388 41.601 -56.875 33.875 C-54.645 27.853 -51.769 23.86 -47.281 19.316 C-44.891 16.977 -44.891 16.977 -42.668 14.016 C-39.866 10.604 -36.559 8.462 -32.812 6.188 C-32.184 5.794 -31.556 5.4 -30.908 4.994 C-26.642 2.334 -24.061 0.888 -19.062 0.684 C-18.085 0.642 -17.108 0.6 -16.102 0.557 C-15.078 0.517 -14.055 0.478 -13 0.438 C-11.976 0.394 -10.953 0.351 -9.898 0.307 C-2.52 0 -2.52 0 0 0 Z " fill="#E80606" transform="translate(333,186)"/>
<path d="M0 0 C6.099 -0.364 11.077 0.931 16.875 2.75 C17.722 3.003 18.569 3.255 19.441 3.516 C24.481 5.059 29.235 6.892 33.99 9.166 C36.983 10.408 39.784 10.726 43 11 C43.99 9.35 44.98 7.7 46 6 C51 13.5 51 13.5 51 16 C51.804 16.268 52.609 16.536 53.438 16.812 C54.283 17.204 55.129 17.596 56 18 C57.71 23.129 57.143 28.578 57.037 33.939 C57.001 35.923 56.992 37.907 56.984 39.891 C56.68 50.115 56.68 50.115 52.938 53.875 C51.968 54.576 50.999 55.278 50 56 C49.01 55.505 49.01 55.505 48 55 C48.99 54.134 49.98 53.267 51 52.375 C53.214 50.129 53.938 49.284 54.625 46.125 C52.474 35.371 44.386 27.531 35.543 21.578 C28.329 17.007 20.709 13.261 12.898 9.825 C8.138 7.699 4.088 5.257 0 2 C0 1.34 0 0.68 0 0 Z " fill="#E40605" transform="translate(135,120)"/>
<path d="M0 0 C0.66 0 1.32 0 2 0 C0.195 4.653 -1.84 9.195 -3.875 13.75 C-4.214 14.511 -4.553 15.271 -4.902 16.055 C-5.241 16.815 -5.58 17.576 -5.93 18.359 C-6.27 19.124 -6.611 19.888 -6.962 20.676 C-7.659 22.237 -8.36 23.796 -9.064 25.353 C-11.023 29.708 -12.812 34.069 -14.438 38.562 C-17.698 47.051 -21.117 52.612 -28.148 58.406 C-30.43 60.37 -32.147 62.636 -34 65 C-34.825 65.639 -35.65 66.279 -36.5 66.938 C-41.528 71.085 -43.692 76.314 -45.75 82.375 C-46.178 83.62 -46.606 84.865 -47.047 86.148 C-47.361 87.089 -47.676 88.03 -48 89 C-48.33 88.01 -48.66 87.02 -49 86 C-49.66 86 -50.32 86 -51 86 C-51.203 79.346 -51.142 73.204 -49.438 66.742 C-48.919 64.976 -48.919 64.976 -49 63 C-49.976 63.517 -50.952 64.034 -51.957 64.566 C-53.242 65.232 -54.527 65.898 -55.812 66.562 C-56.455 66.905 -57.098 67.247 -57.76 67.6 C-59.469 68.477 -61.233 69.245 -63 70 C-63.99 69.67 -64.98 69.34 -66 69 C-66 68.34 -66 67.68 -66 67 C-58.662 62.969 -51.45 59.028 -43.609 56.055 C-40.236 54.691 -36.958 53.154 -33.688 51.562 C-32.536 51.007 -31.385 50.451 -30.199 49.879 C-22.387 45.291 -19.483 39.221 -17.125 30.75 C-14.074 20.607 -9.278 12.48 -3 4 C-2.477 3.245 -1.953 2.489 -1.414 1.711 C-0.947 1.146 -0.481 0.582 0 0 Z " fill="#131218" transform="translate(236,276)"/>
<path d="M0 0 C0.66 0 1.32 0 2 0 C1.192 5.692 -1.293 10.818 -3.561 16.055 C-5.744 21.388 -6.842 26.223 -6 32 C-5.028 33.683 -4.034 35.354 -3 37 C-4.25 40.328 -6.386 42.969 -8.562 45.75 C-9.183 46.549 -9.803 47.348 -10.441 48.172 C-10.956 48.775 -11.47 49.378 -12 50 C-12.33 50 -12.66 50 -13 50 C-13.144 48.907 -13.289 47.814 -13.438 46.688 C-13.883 43.069 -13.883 43.069 -15 40 C-16.438 40.31 -17.875 40.623 -19.312 40.938 C-20.113 41.112 -20.914 41.286 -21.738 41.465 C-24.145 41.999 -24.145 41.999 -27 43 C-28.071 44.865 -28.071 44.865 -29 47 C-29.874 48.189 -30.749 49.376 -31.625 50.562 C-34.82 55.519 -34.473 60.286 -34 66 C-31.03 65.505 -31.03 65.505 -28 65 C-31.468 68.825 -35.456 71.458 -39.75 74.25 C-40.796 74.938 -40.796 74.938 -41.863 75.641 C-43.573 76.765 -45.286 77.883 -47 79 C-47.66 78.67 -48.32 78.34 -49 78 C-48.624 77.406 -48.248 76.811 -47.861 76.199 C-44.025 69.993 -40.95 63.691 -38.062 57 C-32.384 44.238 -25.085 31.507 -13.453 23.176 C-10.156 20.251 -8.701 17.02 -6.875 13.062 C-2.139 3.088 -2.139 3.088 0 0 Z " fill="#151218" transform="translate(212,212)"/>
<path d="M0 0 C1 1 1 1 1.25 3.375 C1 6 1 6 -0.191 7.523 C-2.393 9.321 -4.55 10.194 -7.188 11.25 C-15.537 14.929 -21.476 20.843 -27 28 C-27.382 28.492 -27.764 28.985 -28.158 29.492 C-31.383 33.799 -33.63 38.167 -35.688 43.125 C-35.982 43.815 -36.277 44.504 -36.58 45.215 C-37.398 47.139 -38.201 49.068 -39 51 C-39.563 52.317 -39.563 52.317 -40.137 53.66 C-41.073 56.197 -41.629 58.656 -42.125 61.312 C-42.376 62.637 -42.376 62.637 -42.633 63.988 C-42.754 64.652 -42.875 65.316 -43 66 C-43.66 66 -44.32 66 -45 66 C-46 46.66 -41.691 31.81 -28.761 16.926 C-11.281 -2.452 -11.281 -2.452 0 0 Z " fill="#DD0D0C" transform="translate(204,184)"/>
<path d="M0 0 C0.495 1.485 0.495 1.485 1 3 C-0.29 5.506 -1.619 7.817 -3.125 10.188 C-3.546 10.863 -3.967 11.538 -4.4 12.234 C-5.231 13.568 -6.066 14.899 -6.903 16.228 C-7.774 17.635 -8.595 19.073 -9.398 20.52 C-12.831 26.69 -18.234 31.745 -25 34 C-25.33 34.99 -25.66 35.98 -26 37 C-27.828 38.691 -27.828 38.691 -30.25 40.562 C-31.142 41.255 -32.034 41.947 -32.953 42.66 C-33.959 43.432 -34.964 44.204 -36 45 C-37.162 45.914 -38.324 46.83 -39.484 47.746 C-40.656 48.665 -41.828 49.582 -43 50.5 C-43.564 50.945 -44.127 51.391 -44.708 51.85 C-48.771 55 -48.771 55 -51 55 C-51 55.66 -51 56.32 -51 57 C-52.658 58.475 -54.378 59.881 -56.125 61.25 C-59.433 63.875 -62.538 66.434 -65.375 69.562 C-68 72 -68 72 -70.75 72.5 C-73 72 -73 72 -75 70 C-76.237 61.586 -77.143 51.272 -75 43 C-72.949 40.668 -72.949 40.668 -71 39 C-71.309 40.238 -71.619 41.475 -71.938 42.75 C-73.22 48.452 -73.626 54.179 -74 60 C-73.34 60 -72.68 60 -72 60 C-71.67 62.97 -71.34 65.94 -71 69 C-66.538 65.127 -62.143 61.207 -57.812 57.188 C-53.407 53.164 -48.819 49.482 -44.057 45.898 C-39.187 42.208 -34.56 38.272 -29.963 34.248 C-26.791 31.483 -23.586 28.965 -20.125 26.562 C-13.84 21.799 -10.455 14.51 -6.754 7.711 C-4.903 4.326 -3.338 2.027 0 0 Z " fill="#0C0C0C" transform="translate(259,302)"/>
<path d="M0 0 C0.33 0 0.66 0 1 0 C0.634 8.238 -3.514 15.009 -8.621 21.316 C-9.075 21.878 -9.529 22.439 -9.996 23.017 C-10.894 24.105 -11.811 25.178 -12.748 26.233 C-15.218 29.193 -16.306 31.4 -16.391 35.191 C-15.93 39.679 -14.934 41.602 -12 45 C-4.269 50.662 6.372 55.378 16.145 54.945 C22.912 52.705 27.979 46.864 33 42 C34.552 40.552 36.113 39.112 37.688 37.688 C38.56 36.858 38.56 36.858 39.449 36.012 C39.961 35.678 40.473 35.344 41 35 C41.99 35.33 42.98 35.66 44 36 C43 39 43 39 40.188 40.875 C36.983 42.776 36.983 42.776 35.145 45.34 C32.828 48.213 30.367 50.368 27.5 52.688 C26.562 53.454 25.623 54.221 24.656 55.012 C20.108 58.416 16.7 59.806 11 59 C2.588 56.944 -5.236 53.797 -13 50 C-13 49.34 -13 48.68 -13 48 C-13.598 47.794 -14.196 47.587 -14.812 47.375 C-18.045 45.343 -18.733 43.612 -20 40 C-20.999 30.669 -20.999 30.669 -18.602 26.664 C-18.073 26.115 -17.545 25.566 -17 25 C-16.34 25 -15.68 25 -15 25 C-15 24.34 -15 23.68 -15 23 C-14.34 23 -13.68 23 -13 23 C-12.691 22.381 -12.381 21.762 -12.062 21.125 C-11.375 19.75 -10.688 18.375 -10 17 C-9.34 17 -8.68 17 -8 17 C-7.897 16.294 -7.794 15.587 -7.688 14.859 C-6.907 11.614 -5.633 9.156 -4 6.25 C-3.464 5.286 -2.927 4.322 -2.375 3.328 C-1 1 -1 1 0 0 Z " fill="#0C0C0C" transform="translate(127,309)"/>
<path d="M0 0 C0.99 0.33 1.98 0.66 3 1 C2.859 6.659 0.299 9.439 -3.309 13.461 C-5 15 -5 15 -7 15 C-7.256 15.595 -7.512 16.189 -7.775 16.802 C-9.125 19.224 -10.44 20.449 -12.598 22.172 C-13.313 22.75 -14.029 23.329 -14.766 23.925 C-15.524 24.527 -16.282 25.129 -17.062 25.75 C-18.606 26.999 -20.149 28.249 -21.691 29.5 C-22.434 30.101 -23.177 30.701 -23.942 31.32 C-30.836 36.439 -30.836 36.439 -36 43 C-36.66 43 -37.32 43 -38 43 C-38.255 43.668 -38.51 44.335 -38.773 45.023 C-43.249 55.885 -48.69 65.786 -56 75 C-57.251 76.582 -58.501 78.166 -59.75 79.75 C-60.318 80.468 -60.887 81.186 -61.473 81.926 C-62.905 83.871 -64.058 85.806 -65.188 87.938 C-66.96 90.932 -67.751 91.956 -71 93 C-69.517 88.844 -67.413 85.292 -65 81.625 C-64.412 80.717 -64.412 80.717 -63.811 79.792 C-61.708 76.56 -59.569 73.356 -57.395 70.172 C-52.912 63.591 -48.819 57.177 -45.547 49.879 C-41.755 42.823 -36.573 37.294 -30.688 31.938 C-30.03 31.33 -29.372 30.723 -28.694 30.098 C-24.544 26.303 -20.286 22.741 -15.781 19.371 C-13.29 17.454 -11.163 15.277 -9 13 C-8.411 12.455 -7.822 11.909 -7.215 11.348 C-3.448 7.813 -1.145 5.217 0 0 Z " fill="#0E0E0F" transform="translate(328,211)"/>
<path d="M0 0 C1.925 2.888 3.102 5.205 3.48 8.68 C2.091 15.391 -5.954 20.508 -11.375 24.125 C-14.385 25.982 -15.176 26 -19 26 C-20.756 22.488 -20.545 18.833 -20 15 C-16.325 6.429 -9.742 -0.886 0 0 Z " fill="#F4EE03" transform="translate(197,252)"/>
<path d="M0 0 C2 -0.043 4 -0.041 6 0 C7 1 7 1 7.25 4.438 C7.114 13.82 2.611 23.216 -0.5 31.938 C-1.086 33.621 -1.086 33.621 -1.684 35.338 C-2.258 36.948 -2.258 36.948 -2.844 38.59 C-3.186 39.558 -3.528 40.526 -3.881 41.523 C-4.976 43.947 -5.993 45.292 -8 47 C-8.268 46.216 -8.536 45.433 -8.812 44.625 C-9.848 41.719 -9.848 41.719 -13 40 C-19.866 39.254 -26.381 41.328 -33 43 C-33 42.34 -33 41.68 -33 41 C-25.237 38.056 -18.256 37.651 -10 38 C-6.668 31.8 -6.668 31.8 -5 25 C-5.66 25.33 -6.32 25.66 -7 26 C-8.375 26.083 -9.755 26.107 -11.133 26.098 C-11.938 26.094 -12.744 26.091 -13.574 26.088 C-14.416 26.08 -15.258 26.071 -16.125 26.062 C-16.974 26.058 -17.824 26.053 -18.699 26.049 C-20.8 26.037 -22.9 26.019 -25 26 C-25 25.67 -25 25.34 -25 25 C-23.03 24.923 -23.03 24.923 -21.02 24.844 C-19.284 24.731 -17.548 24.616 -15.812 24.5 C-14.948 24.472 -14.084 24.443 -13.193 24.414 C-8.242 24.067 -8.242 24.067 -4.341 21.262 C-3.051 19.218 -1.995 17.201 -1 15 C-0.628 14.312 -0.256 13.624 0.127 12.915 C1.357 10.216 0.972 8.167 0.625 5.25 C0.514 4.265 0.403 3.28 0.289 2.266 C0.194 1.518 0.098 0.77 0 0 Z " fill="#22141A" transform="translate(338,161)"/>
<path d="M0 0 C-0.375 0.496 -0.75 0.993 -1.137 1.504 C-1.904 2.523 -1.904 2.523 -2.688 3.562 C-3.186 4.224 -3.685 4.885 -4.199 5.566 C-5.091 6.771 -5.091 6.771 -6 8 C-6.394 8.513 -6.787 9.025 -7.193 9.554 C-10.403 13.844 -12.638 18.186 -14.688 23.125 C-14.982 23.815 -15.277 24.504 -15.58 25.215 C-16.398 27.139 -17.201 29.068 -18 31 C-18.563 32.317 -18.563 32.317 -19.137 33.66 C-20.073 36.197 -20.629 38.656 -21.125 41.312 C-21.293 42.196 -21.46 43.079 -21.633 43.988 C-21.754 44.652 -21.875 45.316 -22 46 C-22.66 46 -23.32 46 -24 46 C-24.828 29.988 -22.592 14.702 -12 2 C-11.01 2 -10.02 2 -9 2 C-5.565 -0.29 -4.015 -0.178 0 0 Z " fill="#CA100F" transform="translate(183,204)"/>
<path d="M0 0 C6.429 2.131 12.847 4.292 19.25 6.5 C20.557 6.943 20.557 6.943 21.891 7.395 C29.353 9.977 34.303 12.558 39 19 C39 19.99 39 20.98 39 22 C33.163 21.015 28.306 18.544 23 16 C22.354 15.696 21.709 15.392 21.043 15.079 C5.442 7.714 5.442 7.714 0 2 C0 1.34 0 0.68 0 0 Z " fill="#D4100F" transform="translate(200,84)"/>
<path d="M0 0 C0.66 0 1.32 0 2 0 C0.195 4.653 -1.84 9.195 -3.875 13.75 C-4.214 14.511 -4.553 15.271 -4.902 16.055 C-5.241 16.815 -5.58 17.576 -5.93 18.359 C-6.269 19.122 -6.609 19.884 -6.959 20.67 C-7.665 22.25 -8.375 23.829 -9.088 25.406 C-10.817 29.248 -12.473 33.041 -13.75 37.062 C-13.992 37.817 -14.235 38.571 -14.484 39.348 C-14.655 39.893 -14.825 40.438 -15 41 C-16.65 41 -18.3 41 -20 41 C-16.931 26.703 -10.577 10.577 0 0 Z " fill="#141318" transform="translate(236,276)"/>
<path d="M0 0 C0.33 0.66 0.66 1.32 1 2 C-0.061 4.56 -1.181 6.975 -2.438 9.438 C-2.985 10.518 -2.985 10.518 -3.543 11.621 C-6.789 17.877 -10.619 23.478 -15 29 C-16.251 30.582 -17.501 32.166 -18.75 33.75 C-19.318 34.468 -19.887 35.186 -20.473 35.926 C-21.905 37.871 -23.058 39.806 -24.188 41.938 C-25.96 44.932 -26.751 45.956 -30 47 C-28.517 42.844 -26.413 39.291 -24 35.625 C-23.608 35.021 -23.217 34.418 -22.813 33.796 C-20.695 30.542 -18.541 27.313 -16.359 24.102 C-15.489 22.818 -14.619 21.534 -13.75 20.25 C-13.326 19.624 -12.901 18.998 -12.464 18.353 C-9.595 14.057 -7.186 9.706 -5.133 4.953 C-3.78 2.621 -2.231 1.475 0 0 Z " fill="#101010" transform="translate(287,257)"/>
<path d="M0 0 C0.66 0.99 1.32 1.98 2 3 C1.505 3.763 1.01 4.526 0.5 5.312 C-1.521 10.281 -1.254 14.707 -1 20 C0.98 19.67 2.96 19.34 5 19 C1.532 22.825 -2.456 25.458 -6.75 28.25 C-7.447 28.709 -8.145 29.168 -8.863 29.641 C-10.573 30.765 -12.286 31.883 -14 33 C-14.66 32.67 -15.32 32.34 -16 32 C-15.629 31.413 -15.258 30.826 -14.876 30.221 C-10.918 23.811 -7.668 17.261 -4.625 10.375 C-4.175 9.371 -3.725 8.367 -3.262 7.332 C-2.169 4.89 -1.082 2.447 0 0 Z " fill="#211E1F" transform="translate(179,258)"/>
<path d="M0 0 C1.344 2.688 0.408 3.974 -0.453 6.715 C-1.57 11.383 -1.702 16.221 -2 21 C-1.34 21 -0.68 21 0 21 C0.33 23.97 0.66 26.94 1 30 C6.54 25.192 11.986 20.295 17.387 15.332 C19.859 13.126 22.393 11.044 25 9 C25.66 9.33 26.32 9.66 27 10 C26.196 10.763 25.391 11.526 24.562 12.312 C21.832 14.794 21.832 14.794 21 18 C19.324 19.499 17.584 20.928 15.812 22.312 C12.523 24.917 9.444 27.455 6.625 30.562 C4 33 4 33 1.25 33.5 C-1 33 -1 33 -3 31 C-6.25 8.9 -6.25 8.9 -1.453 1.668 C-0.734 0.842 -0.734 0.842 0 0 Z " fill="#080809" transform="translate(187,341)"/>
<path d="M0 0 C2.176 0.528 4.329 1.095 6.48 1.719 C11.001 3.023 15.164 4.099 19.875 4.312 C23.319 4.597 24.797 5.31 27.062 7.938 C29 11 29 11 29 13 C19.456 14.205 12.831 11.397 5 6 C2.928 4.071 1.564 2.375 0 0 Z " fill="#D2100E" transform="translate(135,93)"/>
<path d="M0 0 C10.404 2.601 17.93 11.395 25 19 C25.33 19.66 25.66 20.32 26 21 C26.33 14.73 26.66 8.46 27 2 C30.211 6.816 29.215 12.323 29.053 17.939 C29.002 19.923 28.99 21.907 28.98 23.891 C28.687 34.108 28.687 34.108 24.938 37.875 C23.968 38.576 22.999 39.278 22 40 C21.34 39.67 20.68 39.34 20 39 C20.99 38.134 21.98 37.267 23 36.375 C25.214 34.129 25.938 33.284 26.625 30.125 C24.488 19.442 16.477 11.848 7.836 5.777 C5.916 4.569 3.978 3.387 2.02 2.242 C1.353 1.832 0.687 1.422 0 1 C0 0.67 0 0.34 0 0 Z " fill="#5A3432" transform="translate(163,136)"/>
<path d="M0 0 C0.33 0 0.66 0 1 0 C1.369 6.641 0.128 11.74 -2 18 C-2.438 19.324 -2.876 20.648 -3.312 21.973 C-4.529 25.653 -5.761 29.327 -7 33 C-7.66 33 -8.32 33 -9 33 C-9.11 33.568 -9.219 34.137 -9.332 34.723 C-10.377 39.81 -11.594 44.38 -14 49 C-15.485 49.495 -15.485 49.495 -17 50 C-16.596 46.764 -15.689 44.261 -14.172 41.418 C-11.847 36.85 -10.15 32.158 -8.5 27.312 C-8.048 26.003 -8.048 26.003 -7.587 24.668 C-4.8 16.535 -2.012 8.365 0 0 Z " fill="#010001" transform="translate(346,163)"/>
<path d="M0 0 C0.66 0.33 1.32 0.66 2 1 C-3.75 6 -3.75 6 -6 6 C-6.33 6.99 -6.66 7.98 -7 9 C-6.34 9.66 -5.68 10.32 -5 11 C-5.953 11.531 -6.905 12.062 -7.887 12.609 C-9.154 13.323 -10.421 14.036 -11.688 14.75 C-12.313 15.098 -12.939 15.446 -13.584 15.805 C-16.566 17.491 -19.131 19.11 -21.77 21.328 C-22.506 21.88 -23.242 22.432 -24 23 C-24.99 22.67 -25.98 22.34 -27 22 C-22.314 17.095 -17.728 12.666 -12 9 C-11.34 9 -10.68 9 -10 9 C-10 8.34 -10 7.68 -10 7 C-7.812 5.273 -7.812 5.273 -5 3.375 C-4.072 2.743 -3.144 2.112 -2.188 1.461 C-1.466 0.979 -0.744 0.497 0 0 Z " fill="#8B2B2A" transform="translate(267,233)"/>
<path d="M0 0 C-0.99 1.485 -0.99 1.485 -2 3 C-2.66 3 -3.32 3 -4 3 C-4.33 4.32 -4.66 5.64 -5 7 C-5.66 7 -6.32 7 -7 7 C-7 6.34 -7 5.68 -7 5 C-7.976 5.517 -8.952 6.034 -9.957 6.566 C-11.242 7.232 -12.527 7.898 -13.812 8.562 C-14.455 8.905 -15.098 9.247 -15.76 9.6 C-17.469 10.477 -19.233 11.245 -21 12 C-21.99 11.67 -22.98 11.34 -24 11 C-24 10.34 -24 9.68 -24 9 C-21.606 7.705 -19.21 6.414 -16.812 5.125 C-16.139 4.76 -15.465 4.395 -14.771 4.02 C-4.307 -1.595 -4.307 -1.595 0 0 Z " fill="#101010" transform="translate(194,334)"/>
<path d="M0 0 C0.66 0 1.32 0 2 0 C1.34 1.669 0.671 3.335 0 5 C-0.239 5.595 -0.478 6.19 -0.725 6.803 C-1.541 8.797 -2.393 10.773 -3.25 12.75 C-3.525 13.434 -3.799 14.119 -4.082 14.824 C-4.953 16.797 -4.953 16.797 -7 20 C-10.234 20.953 -10.234 20.953 -13 21 C-11.383 16.231 -8.748 12.376 -5.938 8.25 C-5.478 7.566 -5.018 6.881 -4.545 6.176 C-1.169 1.169 -1.169 1.169 0 0 Z " fill="#1A191D" transform="translate(236,276)"/>
<path d="M0 0 C-0.607 4.128 -2.038 7.332 -4 11 C-4.248 10.402 -4.495 9.804 -4.75 9.188 C-6.254 6.555 -7.325 5.446 -10 4 C-16.818 3.13 -23.424 5.339 -30 7 C-30 6.34 -30 5.68 -30 5 C-23.132 2.396 -17.215 1.745 -9.883 2.09 C-6.089 1.972 -3.768 0 0 0 Z " fill="#37181D" transform="translate(335,197)"/>
<path d="M0 0 C0.66 0 1.32 0 2 0 C1.316 4.176 -0.014 7.881 -1.562 11.812 C-2.018 12.974 -2.473 14.135 -2.941 15.332 C-3.291 16.212 -3.64 17.093 -4 18 C-4.99 17.67 -5.98 17.34 -7 17 C-6.711 10.354 -4.005 5.279 0 0 Z " fill="#9A2326" transform="translate(212,212)"/>
<path d="M0 0 C0.66 0.33 1.32 0.66 2 1 C-3.75 6 -3.75 6 -6 6 C-6.33 6.99 -6.66 7.98 -7 9 C-6.34 9.66 -5.68 10.32 -5 11 C-8.445 13.296 -10.938 13.54 -15 14 C-13.625 11.5 -13.625 11.5 -12 9 C-11.34 9 -10.68 9 -10 9 C-10 8.34 -10 7.68 -10 7 C-7.812 5.273 -7.812 5.273 -5 3.375 C-4.072 2.743 -3.144 2.112 -2.188 1.461 C-1.105 0.738 -1.105 0.738 0 0 Z " fill="#A81917" transform="translate(267,233)"/>
<path d="M0 0 C0.66 0 1.32 0 2 0 C3.727 2.52 3.727 2.52 5.625 5.812 C6.257 6.891 6.888 7.97 7.539 9.082 C9 12 9 12 9 15 C8.34 14.34 7.68 13.68 7 13 C6.34 14.32 5.68 15.64 5 17 C4.163 14.543 3.33 12.084 2.5 9.625 C2.262 8.926 2.023 8.228 1.777 7.508 C0 2.227 0 2.227 0 0 Z " fill="#872B2A" transform="translate(199,97)"/>
<path d="M0 0 C2.732 2.642 5.139 5.35 7.438 8.375 C10.212 11.992 13.056 15.52 16 19 C15.67 19.66 15.34 20.32 15 21 C9.187 15.677 4.127 9.732 0 3 C0 2.01 0 1.02 0 0 Z " fill="#BFB5B7" transform="translate(233,158)"/>
<path d="M0 0 C0.33 0.99 0.66 1.98 1 3 C-3.29 7.29 -7.58 11.58 -12 16 C-12 12.322 -11.232 11.776 -8.812 9.125 C-8.178 8.426 -7.544 7.728 -6.891 7.008 C-4.64 4.618 -2.356 2.285 0 0 Z " fill="#DDDDDD" transform="translate(189,198)"/>
<path d="M0 0 C0.66 0.99 1.32 1.98 2 3 C1.288 4.238 1.288 4.238 0.562 5.5 C-1.236 9.528 -1.623 12.632 -2 17 C-2.66 16.01 -3.32 15.02 -4 14 C-4.99 14.495 -4.99 14.495 -6 15 C-4.36 9.767 -2.61 4.848 0 0 Z " fill="#372D26" transform="translate(179,258)"/>
<path d="M0 0 C0.33 0 0.66 0 1 0 C1.35 6.308 0.741 12.214 -2 18 C-2.99 18.33 -3.98 18.66 -5 19 C-3.432 12.636 -1.857 6.286 0 0 Z " fill="#000001" transform="translate(346,163)"/>
<path d="M0 0 C3.265 0.801 6.507 1.675 9.75 2.562 C11.227 2.967 11.227 2.967 12.734 3.379 C13.856 3.686 13.856 3.686 15 4 C15 4.33 15 4.66 15 5 C14.031 5.124 13.061 5.248 12.062 5.375 C10.547 5.684 10.547 5.684 9 6 C8.67 6.66 8.34 7.32 8 8 C6.664 6.858 5.331 5.711 4 4.562 C3.257 3.924 2.515 3.286 1.75 2.629 C1.173 2.091 0.595 1.554 0 1 C0 0.67 0 0.34 0 0 Z " fill="#8A2A28" transform="translate(135,93)"/>
<path d="M0 0 C-2.457 2.632 -4.566 4.781 -8 6 C-8.99 5.67 -9.98 5.34 -11 5 C-11 4.34 -11 3.68 -11 3 C-9.736 2.3 -8.463 1.616 -7.188 0.938 C-6.48 0.555 -5.772 0.172 -5.043 -0.223 C-3 -1 -3 -1 0 0 Z " fill="#111111" transform="translate(181,340)"/>
<path d="M0 0 C0.66 0.33 1.32 0.66 2 1 C0.876 2.292 -0.249 3.584 -1.375 4.875 C-2.001 5.594 -2.628 6.314 -3.273 7.055 C-4.474 8.408 -5.721 9.721 -7 11 C-7.99 10.67 -8.98 10.34 -10 10 C-6.7 6.7 -3.4 3.4 0 0 Z " fill="#CA2E2D" transform="translate(185,191)"/>
<path d="M0 0 C0.99 0.33 1.98 0.66 3 1 C3 1.66 3 2.32 3 3 C-4.92 3 -12.84 3 -21 3 C-21 2.67 -21 2.34 -21 2 C-14.07 2 -7.14 2 0 2 C0 1.34 0 0.68 0 0 Z " fill="#BB201D" transform="translate(293,235)"/>
<path d="M0 0 C1.32 0 2.64 0 4 0 C4 1.65 4 3.3 4 5 C0.25 7 0.25 7 -2 7 C-1.34 4.69 -0.68 2.38 0 0 Z " fill="#1F0C12" transform="translate(332,191)"/>
<path d="M0 0 C0.66 0 1.32 0 2 0 C0.667 3.333 -0.667 6.667 -2 10 C-3.32 9.34 -4.64 8.68 -6 8 C-5.05 6.661 -4.089 5.329 -3.125 4 C-2.591 3.257 -2.058 2.515 -1.508 1.75 C-1.01 1.173 -0.513 0.595 0 0 Z " fill="#303032" transform="translate(236,276)"/>
<path d="M0 0 C0.66 0.33 1.32 0.66 2 1 C-0.31 3.64 -2.62 6.28 -5 9 C-5.99 8.67 -6.98 8.34 -8 8 C-3.375 2.25 -3.375 2.25 0 0 Z " fill="#BB2222" transform="translate(296,195)"/>
<path d="M0 0 C-0.33 2.97 -0.66 5.94 -1 9 C-1.99 8.67 -2.98 8.34 -4 8 C-3.744 5.657 -3.407 3.322 -3 1 C-1 0 -1 0 0 0 Z " fill="#BE0F11" transform="translate(209,221)"/>
<path d="M0 0 C0.33 0.99 0.66 1.98 1 3 C-3.75 7.875 -3.75 7.875 -6 9 C-4.688 5.063 -3.081 2.773 0 0 Z " fill="#131313" transform="translate(263,295)"/>
<path d="M0 0 C1.938 0.688 1.938 0.688 4 2 C4.625 4.312 4.625 4.312 5 7 C5.634 8.679 6.293 10.35 7 12 C3.665 9.01 1.785 6.105 0 2 C0 1.34 0 0.68 0 0 Z " fill="#696666" transform="translate(208,122)"/>
<path d="M0 0 C2.312 -0.312 2.312 -0.312 5 0 C6.812 2.5 6.812 2.5 8 5 C4.758 4.65 3.385 4.438 1.188 1.938 C0.796 1.298 0.404 0.659 0 0 Z " fill="#B6ACAE" transform="translate(238,142)"/>
<path d="M0 0 C0.33 0 0.66 0 1 0 C1 1.98 1 3.96 1 6 C1.66 6 2.32 6 3 6 C3 6.99 3 7.98 3 9 C1.35 9 -0.3 9 -2 9 C-1.34 6.03 -0.68 3.06 0 0 Z " fill="#29292C" transform="translate(218,308)"/>
<path d="M0 0 C1 3 1 3 0.25 5.125 C-1 7 -1 7 -4 8 C-3.502 4.312 -2.899 2.395 0 0 Z " fill="#030305" transform="translate(333,205)"/>
<path d="M0 0 C1.5 1.312 1.5 1.312 3 3 C3 3.99 3 4.98 3 6 C-0.821 5.469 -3.062 4.503 -6 2 C-1.25 2.875 -1.25 2.875 1 4 C0.67 2.68 0.34 1.36 0 0 Z " fill="#8D4442" transform="translate(236,100)"/>
<path d="M0 0 C2.97 0.99 5.94 1.98 9 3 C8.01 3.33 7.02 3.66 6 4 C5.67 4.66 5.34 5.32 5 6 C3.293 4.719 1.626 3.382 0 2 C0 1.34 0 0.68 0 0 Z " fill="#8D2827" transform="translate(200,84)"/>
<path d="M0 0 C0.33 0.99 0.66 1.98 1 3 C1.66 3.33 2.32 3.66 3 4 C-0.75 7 -0.75 7 -3 7 C-1.125 2.25 -1.125 2.25 0 0 Z " fill="#8C2C2B" transform="translate(244,209)"/>
<path d="M0 0 C0.433 0.474 0.866 0.949 1.312 1.438 C3.023 3.237 3.023 3.237 6 4 C6.33 5.98 6.66 7.96 7 10 C3.606 6.874 1.394 4.435 0 0 Z " fill="#757273" transform="translate(224,148)"/>
<path d="M0 0 C0.33 0.99 0.66 1.98 1 3 C1.66 3 2.32 3 3 3 C2.67 4.98 2.34 6.96 2 9 C1.67 7.68 1.34 6.36 1 5 C0.34 5 -0.32 5 -1 5 C-0.67 3.35 -0.34 1.7 0 0 Z " fill="#691C20" transform="translate(204,226)"/>
<path d="M0 0 C0.66 0 1.32 0 2 0 C1.453 3.375 0.945 5.082 -1 8 C-1.625 5.688 -1.625 5.688 -2 3 C-1.34 2.01 -0.68 1.02 0 0 Z " fill="#733F42" transform="translate(212,212)"/>
</svg>