<svg version="1.1" id="Layer_1" xmlns="http://www.w3.org/2000/svg" xmlns:xlink="http://www.w3.org/1999/xlink" x="0px" y="0px"
	 width="100%" viewBox="0 0 200 200" enable-background="new 0 0 200 200" xml:space="preserve">
<path fill="#010101" opacity="1.000000" stroke="none" 
	d="
M119.000000,201.000000 
	C79.357826,201.000000 40.215649,201.000000 1.036737,201.000000 
	C1.036737,134.399536 1.036737,67.799034 1.036737,1.099268 
	C67.558670,1.099268 134.117538,1.099268 200.838196,1.099268 
	C200.838196,67.666351 200.838196,134.333145 200.838196,201.000000 
	C173.799316,201.000000 146.649658,201.000000 119.000000,201.000000 
M110.336258,180.021439 
	C113.985184,177.580414 119.687050,178.993439 121.885307,173.772186 
	C122.823883,171.542877 124.074440,169.447128 125.111923,167.256912 
	C132.618378,151.410400 140.813660,136.102661 156.854385,126.998833 
	C165.987488,121.815392 171.027039,113.941353 172.679260,103.663109 
	C173.041977,101.406807 173.950211,99.212234 174.800827,97.065964 
	C176.350220,93.156487 176.396881,89.790321 173.323975,86.278847 
	C170.171967,82.676987 167.599091,78.519432 165.133896,74.389511 
	C164.150146,72.741432 163.553665,70.445953 163.780594,68.565865 
	C164.617126,61.635487 166.181793,54.784412 166.827057,47.843494 
	C167.110703,44.792355 166.526276,41.250500 165.149033,38.532997 
	C161.252060,30.843683 156.741776,23.465191 152.337250,15.725552 
	C145.444351,21.043934 138.621475,26.596813 131.469193,31.686836 
	C128.549438,33.764721 127.481934,36.176388 127.157433,39.501041 
	C126.630638,44.898373 125.788429,50.264927 124.984200,56.366371 
	C109.984299,50.308990 95.483513,49.707619 80.773262,56.298168 
	C79.834938,49.467514 79.077759,43.729465 78.236137,38.003834 
	C78.049248,36.732349 77.973175,35.006229 77.153503,34.334393 
	C69.539986,28.094013 61.774868,22.038580 53.822598,15.746608 
	C50.369534,21.803446 47.684528,27.378567 44.203014,32.401627 
	C39.811672,38.737373 37.537582,45.222496 39.816105,52.855656 
	C40.146904,53.963848 40.321663,55.120125 40.544117,56.258934 
	C43.524334,71.515495 43.670734,71.627472 34.391994,83.871986 
	C30.932682,88.436989 29.162128,92.544853 31.750053,98.278053 
	C33.850609,102.931534 34.449532,108.247246 36.380936,112.998299 
	C37.623314,116.054413 39.599422,119.169136 42.072327,121.298904 
	C48.590576,126.912704 55.641529,131.902985 62.305157,137.355667 
	C64.697739,139.313461 67.121567,141.583054 68.614563,144.227768 
	C74.168312,154.065735 79.336617,164.121155 84.664391,174.087051 
	C85.113663,174.927444 85.537712,176.273315 86.201256,176.432037 
	C93.886162,178.270081 101.031532,183.712097 110.336258,180.021439 
z"/>
<path fill="#C8DCFA" opacity="1.000000" stroke="none" 
	d="
M109.950302,180.070862 
	C101.031532,183.712097 93.886162,178.270081 86.201256,176.432037 
	C85.537712,176.273315 85.113663,174.927444 84.664391,174.087051 
	C79.336617,164.121155 74.168312,154.065735 68.614563,144.227768 
	C67.121567,141.583054 64.697739,139.313461 62.305157,137.355667 
	C55.641529,131.902985 48.590576,126.912704 42.072327,121.298904 
	C39.599422,119.169136 37.623314,116.054413 36.380936,112.998299 
	C34.449532,108.247246 33.850609,102.931534 31.750053,98.278053 
	C29.162128,92.544853 30.932682,88.436989 34.391994,83.871986 
	C43.670734,71.627472 43.524334,71.515495 40.544117,56.258934 
	C40.321663,55.120125 40.146904,53.963848 39.816105,52.855656 
	C37.537582,45.222496 39.811672,38.737373 44.203014,32.401627 
	C47.684528,27.378567 50.369534,21.803446 53.822598,15.746608 
	C61.774868,22.038580 69.539986,28.094013 77.153503,34.334393 
	C77.973175,35.006229 78.049248,36.732349 78.236137,38.003834 
	C79.077759,43.729465 79.834938,49.467514 80.773262,56.298168 
	C95.483513,49.707619 109.984299,50.308990 124.984200,56.366371 
	C125.788429,50.264927 126.630638,44.898373 127.157433,39.501041 
	C127.481934,36.176388 128.549438,33.764721 131.469193,31.686836 
	C138.621475,26.596813 145.444351,21.043934 152.337250,15.725552 
	C156.741776,23.465191 161.252060,30.843683 165.149033,38.532997 
	C166.526276,41.250500 167.110703,44.792355 166.827057,47.843494 
	C166.181793,54.784412 164.617126,61.635487 163.780594,68.565865 
	C163.553665,70.445953 164.150146,72.741432 165.133896,74.389511 
	C167.599091,78.519432 170.171967,82.676987 173.323975,86.278847 
	C176.396881,89.790321 176.350220,93.156487 174.800827,97.065964 
	C173.950211,99.212234 173.041977,101.406807 172.679260,103.663109 
	C171.027039,113.941353 165.987488,121.815392 156.854385,126.998833 
	C140.813660,136.102661 132.618378,151.410400 125.111923,167.256912 
	C124.074440,169.447128 122.823883,171.542877 121.885307,173.772186 
	C119.687050,178.993439 113.985184,177.580414 109.950302,180.070862 
M142.257278,115.727791 
	C144.772217,114.134949 147.397751,112.685875 149.747604,110.878418 
	C150.685623,110.156914 151.655212,108.548035 151.499176,107.510185 
	C151.066010,104.629333 150.049225,101.836220 149.397476,99.492035 
	C142.018997,97.578003 136.948746,99.567352 133.725281,105.971809 
	C132.786499,107.837021 131.255554,109.413574 129.939789,111.077957 
	C125.663315,116.487549 121.074646,121.777916 123.465767,128.889191 
	C129.389511,124.717163 135.510590,120.406143 142.257278,115.727791 
M75.391678,125.113495 
	C77.121452,126.723907 78.851219,128.334320 80.631836,129.992065 
	C82.230583,123.626160 80.663727,118.610100 76.398682,114.173492 
	C73.879318,111.552773 71.461342,108.667595 69.715630,105.505089 
	C66.144447,99.035599 60.841572,97.805321 54.094193,99.420906 
	C53.758892,100.597290 53.484219,101.899597 53.019657,103.130219 
	C51.318855,107.635628 52.340855,110.486946 56.951778,112.943604 
	C63.217621,116.281998 68.923523,120.671349 75.391678,125.113495 
M96.409592,166.271973 
	C101.832268,171.889038 103.341454,171.950134 110.002892,166.701065 
	C108.768219,163.621735 108.306648,160.303253 103.286163,160.679565 
	C99.585640,160.956924 97.190361,161.648682 96.409592,166.271973 
z"/>
<path fill="#080809" opacity="1.000000" stroke="none" 
	d="
M141.944473,115.911453 
	C135.510590,120.406143 129.389511,124.717163 123.465767,128.889191 
	C121.074646,121.777916 125.663315,116.487549 129.939789,111.077957 
	C131.255554,109.413574 132.786499,107.837021 133.725281,105.971809 
	C136.948746,99.567352 142.018997,97.578003 149.397476,99.492035 
	C150.049225,101.836220 151.066010,104.629333 151.499176,107.510185 
	C151.655212,108.548035 150.685623,110.156914 149.747604,110.878418 
	C147.397751,112.685875 144.772217,114.134949 141.944473,115.911453 
z"/>
<path fill="#070708" opacity="1.000000" stroke="none" 
	d="
M75.130615,124.861732 
	C68.923523,120.671349 63.217621,116.281998 56.951778,112.943604 
	C52.340855,110.486946 51.318855,107.635628 53.019657,103.130219 
	C53.484219,101.899597 53.758892,100.597290 54.094193,99.420906 
	C60.841572,97.805321 66.144447,99.035599 69.715630,105.505089 
	C71.461342,108.667595 73.879318,111.552773 76.398682,114.173492 
	C80.663727,118.610100 82.230583,123.626160 80.631836,129.992065 
	C78.851219,128.334320 77.121452,126.723907 75.130615,124.861732 
z"/>
<path fill="#0A0A0B" opacity="1.000000" stroke="none" 
	d="
M96.528061,165.925903 
	C97.190361,161.648682 99.585640,160.956924 103.286163,160.679565 
	C108.306648,160.303253 108.768219,163.621735 110.002892,166.701065 
	C103.341454,171.950134 101.832268,171.889038 96.528061,165.925903 
z"/>
</svg>